<mxfile host="65bd71144e">
    <diagram id="Tri-lsjyiUfbaA3de-jJ" name="Page-1">
        <mxGraphModel dx="581" dy="708" grid="1" gridSize="10" guides="1" tooltips="1" connect="1" arrows="1" fold="1" page="1" pageScale="1" pageWidth="850" pageHeight="1100" math="0" shadow="0">
            <root>
                <mxCell id="0"/>
                <mxCell id="1" parent="0"/>
                <mxCell id="87" value="" style="rounded=0;whiteSpace=wrap;html=1;fontSize=11;align=left;verticalAlign=top;horizontal=1;" parent="1" vertex="1">
                    <mxGeometry x="24" y="650" width="626" height="240" as="geometry"/>
                </mxCell>
                <mxCell id="86" value="" style="rounded=0;whiteSpace=wrap;html=1;fontSize=11;align=left;verticalAlign=top;horizontal=1;" parent="1" vertex="1">
                    <mxGeometry x="24" y="350" width="556" height="280" as="geometry"/>
                </mxCell>
                <mxCell id="56" value="" style="shape=hexagon;perimeter=hexagonPerimeter2;whiteSpace=wrap;html=1;fixedSize=1;" parent="1" vertex="1">
                    <mxGeometry x="1409" y="715" width="160" height="150" as="geometry"/>
                </mxCell>
                <mxCell id="53" value="" style="shape=hexagon;perimeter=hexagonPerimeter2;whiteSpace=wrap;html=1;fixedSize=1;" parent="1" vertex="1">
                    <mxGeometry x="1429" y="735" width="120" height="110" as="geometry"/>
                </mxCell>
                <mxCell id="2" value="" style="shape=hexagon;perimeter=hexagonPerimeter2;whiteSpace=wrap;html=1;fixedSize=1;" parent="1" vertex="1">
                    <mxGeometry x="1449" y="755" width="80" height="70" as="geometry"/>
                </mxCell>
                <mxCell id="60" style="edgeStyle=orthogonalEdgeStyle;rounded=0;orthogonalLoop=1;jettySize=auto;html=1;entryX=0;entryY=0.5;entryDx=0;entryDy=0;fontSize=11;" parent="1" source="3" target="56" edge="1">
                    <mxGeometry relative="1" as="geometry"/>
                </mxCell>
                <mxCell id="3" value="Port" style="text;html=1;align=center;verticalAlign=middle;resizable=0;points=[];autosize=1;strokeColor=none;" parent="1" vertex="1">
                    <mxGeometry x="1335" y="780" width="40" height="20" as="geometry"/>
                </mxCell>
                <mxCell id="59" style="edgeStyle=orthogonalEdgeStyle;rounded=0;orthogonalLoop=1;jettySize=auto;html=1;fontSize=11;" parent="1" source="4" target="3" edge="1">
                    <mxGeometry relative="1" as="geometry"/>
                </mxCell>
                <mxCell id="4" value="Adapter" style="text;html=1;align=center;verticalAlign=middle;resizable=0;points=[];autosize=1;strokeColor=none;" parent="1" vertex="1">
                    <mxGeometry x="1260" y="780" width="60" height="20" as="geometry"/>
                </mxCell>
                <mxCell id="29" value="" style="outlineConnect=0;fontColor=#232F3E;gradientColor=none;fillColor=#BC1356;strokeColor=none;dashed=0;verticalLabelPosition=bottom;verticalAlign=top;align=center;html=1;fontSize=12;fontStyle=0;aspect=fixed;pointerEvents=1;shape=mxgraph.aws4.state_manager;" parent="1" vertex="1">
                    <mxGeometry x="670" y="451" width="78" height="78" as="geometry"/>
                </mxCell>
                <mxCell id="32" value="EventHub" style="aspect=fixed;html=1;points=[];align=center;image;fontSize=12;image=img/lib/mscae/Dedicated_Event_Hub.svg;" parent="1" vertex="1">
                    <mxGeometry x="59.99999999999994" y="700" width="72.92" height="70" as="geometry"/>
                </mxCell>
                <mxCell id="33" value="&lt;div style=&quot;text-align: left&quot;&gt;&lt;span&gt;Wormdrive: read many write once&lt;/span&gt;&lt;/div&gt;Event Sourcing: fold f(state, event) -&amp;gt; state" style="text;html=1;align=center;verticalAlign=middle;resizable=0;points=[];autosize=1;strokeColor=none;" parent="1" vertex="1">
                    <mxGeometry x="52" y="660" width="240" height="30" as="geometry"/>
                </mxCell>
                <mxCell id="71" style="edgeStyle=orthogonalEdgeStyle;rounded=1;orthogonalLoop=1;jettySize=auto;html=1;fontSize=11;" parent="1" source="38" target="7" edge="1">
                    <mxGeometry relative="1" as="geometry">
                        <mxPoint x="420" y="450" as="targetPoint"/>
                        <Array as="points">
                            <mxPoint x="360" y="430"/>
                            <mxPoint x="360" y="490"/>
                        </Array>
                    </mxGeometry>
                </mxCell>
                <mxCell id="38" value="" style="outlineConnect=0;fontColor=#232F3E;gradientColor=none;fillColor=#277116;strokeColor=none;dashed=0;verticalLabelPosition=bottom;verticalAlign=top;align=center;html=1;fontSize=12;fontStyle=0;aspect=fixed;pointerEvents=1;shape=mxgraph.aws4.desired_state;" parent="1" vertex="1">
                    <mxGeometry x="242" y="385" width="78" height="78" as="geometry"/>
                </mxCell>
                <mxCell id="39" value="Desired State" style="text;html=1;align=center;verticalAlign=middle;resizable=0;points=[];autosize=1;strokeColor=none;fontSize=11;" parent="1" vertex="1">
                    <mxGeometry x="162" y="400" width="80" height="20" as="geometry"/>
                </mxCell>
                <mxCell id="41" value="PUB/SUB: &lt;br&gt;consumer should not know its producer&amp;nbsp;&lt;br&gt;producers should not not know its consumer&lt;br&gt;=&amp;gt;&lt;br&gt;Event Sourcing:&lt;br&gt;append only log of events -&amp;gt;list( event f(from, to):state )" style="text;html=1;align=left;verticalAlign=middle;resizable=0;points=[];autosize=1;strokeColor=none;fontSize=11;" parent="1" vertex="1">
                    <mxGeometry x="720" y="675" width="290" height="80" as="geometry"/>
                </mxCell>
                <mxCell id="42" value="&lt;font style=&quot;font-size: 12px&quot;&gt;n-temproral system -&amp;nbsp;&lt;span&gt;multiple timelines of execution&lt;br&gt;&lt;/span&gt;=&amp;gt;&lt;br&gt;deployedbranches de&lt;/font&gt;" style="text;html=1;align=left;verticalAlign=middle;resizable=0;points=[];autosize=1;strokeColor=none;fontSize=11;" parent="1" vertex="1">
                    <mxGeometry x="864" y="557" width="290" height="40" as="geometry"/>
                </mxCell>
                <mxCell id="46" value="StateMachine" style="shape=mxgraph.sysml.stateMachine;verticalAlign=top;whiteSpace=wrap;align=center;fontSize=11;" parent="1" vertex="1">
                    <mxGeometry x="1221" y="940" width="530" height="280" as="geometry"/>
                </mxCell>
                <mxCell id="47" value="aborted" style="resizable=0;html=1;verticalAlign=top;align=left;labelBackgroundColor=none;spacingLeft=5;spacingTop=-2;" parent="46" connectable="0" vertex="1">
                    <mxGeometry x="530" y="140" as="geometry"/>
                </mxCell>
                <mxCell id="15" value="State1&lt;br&gt;[invariant1]&lt;br&gt;&amp;lt;&amp;lt;extended/final&amp;gt;&amp;gt;" style="swimlane;fontStyle=4;align=center;verticalAlign=top;childLayout=stackLayout;horizontal=1;startSize=60;horizontalStack=0;resizeParent=1;resizeParentMax=0;resizeLast=0;collapsible=0;marginBottom=0;html=1;rounded=1;absoluteArcSize=1;arcSize=50;" parent="46" vertex="1">
                    <mxGeometry x="60" y="60" width="140" height="176" as="geometry"/>
                </mxCell>
                <mxCell id="16" value="" style="fillColor=none;strokeColor=none;container=1;collapsible=0;" parent="15" vertex="1">
                    <mxGeometry y="60" width="140" height="50" as="geometry"/>
                </mxCell>
                <mxCell id="17" value="State2" style="html=1;align=center;verticalAlign=middle;rounded=1;absoluteArcSize=1;arcSize=10;" parent="16" vertex="1">
                    <mxGeometry x="30" y="10" width="80" height="30" as="geometry"/>
                </mxCell>
                <mxCell id="18" value="" style="line;strokeWidth=1;fillColor=none;align=left;verticalAlign=middle;spacingTop=-1;spacingLeft=3;spacingRight=3;rotatable=0;labelPosition=right;points=[];portConstraint=eastwest;" parent="15" vertex="1">
                    <mxGeometry y="110" width="140" height="8" as="geometry"/>
                </mxCell>
                <mxCell id="19" value="behavior" style="fillColor=none;strokeColor=none;align=left;verticalAlign=middle;spacingLeft=5;" parent="15" vertex="1">
                    <mxGeometry y="118" width="140" height="25" as="geometry"/>
                </mxCell>
                <mxCell id="20" value="" style="line;strokeWidth=1;fillColor=none;align=left;verticalAlign=middle;spacingTop=-1;spacingLeft=3;spacingRight=3;rotatable=0;labelPosition=right;points=[];portConstraint=eastwest;" parent="15" vertex="1">
                    <mxGeometry y="143" width="140" height="8" as="geometry"/>
                </mxCell>
                <mxCell id="21" value="transition &gt; desired state" style="fillColor=none;strokeColor=none;align=left;verticalAlign=middle;spacingLeft=5;fontSize=11;" parent="15" vertex="1">
                    <mxGeometry y="151" width="140" height="25" as="geometry"/>
                </mxCell>
                <mxCell id="48" value="&lt;p style=&quot;margin:0px;margin-top:4px;text-align:center;&quot;&gt;State2&lt;hr/&gt;&lt;/p&gt;&lt;p style=&quot;margin:0px;margin-left:8px;text-align:left;&quot;&gt;entry / entryActivity&lt;br/&gt;do / doActivity&lt;br/&gt;exit / exitActivity&lt;/p&gt;" style="shape=mxgraph.sysml.simpleState;html=1;overflow=fill;whiteSpace=wrap;align=center;fontSize=11;" parent="46" vertex="1">
                    <mxGeometry x="244" y="95" width="200" height="100" as="geometry"/>
                </mxCell>
                <mxCell id="49" style="edgeStyle=orthogonalEdgeStyle;rounded=0;orthogonalLoop=1;jettySize=auto;html=1;fontSize=11;" parent="46" source="16" target="48" edge="1">
                    <mxGeometry relative="1" as="geometry"/>
                </mxCell>
                <mxCell id="52" value="Polygonal Architecture" style="text;html=1;align=left;verticalAlign=middle;resizable=0;points=[];autosize=1;strokeColor=none;fontSize=11;" parent="1" vertex="1">
                    <mxGeometry x="1426" y="680" width="120" height="20" as="geometry"/>
                </mxCell>
                <mxCell id="54" value="Application" style="text;html=1;align=center;verticalAlign=middle;resizable=0;points=[];autosize=1;strokeColor=none;fontSize=11;" parent="1" vertex="1">
                    <mxGeometry x="1454" y="825" width="70" height="20" as="geometry"/>
                </mxCell>
                <mxCell id="55" value="Framework" style="text;html=1;align=center;verticalAlign=middle;resizable=0;points=[];autosize=1;strokeColor=none;fontSize=11;" parent="1" vertex="1">
                    <mxGeometry x="1454" y="845" width="70" height="20" as="geometry"/>
                </mxCell>
                <mxCell id="57" value="Domain" style="text;html=1;align=center;verticalAlign=middle;resizable=0;points=[];autosize=1;strokeColor=none;fontSize=11;" parent="1" vertex="1">
                    <mxGeometry x="1464" y="805" width="50" height="20" as="geometry"/>
                </mxCell>
                <mxCell id="66" value="converge" style="text;html=1;align=center;verticalAlign=middle;resizable=0;points=[];autosize=1;strokeColor=none;fontSize=11;" parent="1" vertex="1">
                    <mxGeometry x="300" y="487" width="60" height="20" as="geometry"/>
                </mxCell>
                <mxCell id="70" value="" style="group" parent="1" vertex="1" connectable="0">
                    <mxGeometry x="153" y="522" width="172" height="78" as="geometry"/>
                </mxCell>
                <mxCell id="37" value="" style="outlineConnect=0;fontColor=#232F3E;gradientColor=none;fillColor=#277116;strokeColor=none;dashed=0;verticalLabelPosition=bottom;verticalAlign=top;align=center;html=1;fontSize=12;fontStyle=0;aspect=fixed;pointerEvents=1;shape=mxgraph.aws4.reported_state;" parent="70" vertex="1">
                    <mxGeometry x="94" width="78" height="78" as="geometry"/>
                </mxCell>
                <mxCell id="40" value="Reported State" style="text;html=1;align=center;verticalAlign=middle;resizable=0;points=[];autosize=1;strokeColor=none;fontSize=11;" parent="70" vertex="1">
                    <mxGeometry y="29" width="90" height="20" as="geometry"/>
                </mxCell>
                <mxCell id="72" style="edgeStyle=orthogonalEdgeStyle;rounded=1;orthogonalLoop=1;jettySize=auto;html=1;fontSize=11;" parent="1" source="37" target="7" edge="1">
                    <mxGeometry relative="1" as="geometry">
                        <mxPoint x="435" y="465" as="targetPoint"/>
                        <Array as="points">
                            <mxPoint x="360" y="561"/>
                            <mxPoint x="360" y="490"/>
                        </Array>
                    </mxGeometry>
                </mxCell>
                <mxCell id="9" value="" style="ellipse;html=1;shape=endState;fillColor=#000000;strokeColor=#ff0000;" parent="1" vertex="1">
                    <mxGeometry x="570" y="477" width="30" height="30" as="geometry"/>
                </mxCell>
                <mxCell id="14" value="" style="edgeStyle=orthogonalEdgeStyle;rounded=0;orthogonalLoop=1;jettySize=auto;html=1;" parent="1" source="7" target="9" edge="1">
                    <mxGeometry relative="1" as="geometry"/>
                </mxCell>
                <mxCell id="80" style="edgeStyle=orthogonalEdgeStyle;rounded=1;orthogonalLoop=1;jettySize=auto;html=1;fontSize=11;" parent="1" source="79" target="39" edge="1">
                    <mxGeometry relative="1" as="geometry"/>
                </mxCell>
                <mxCell id="79" value="git" style="verticalLabelPosition=bottom;html=1;verticalAlign=top;align=center;strokeColor=none;fillColor=#00BEF2;shape=mxgraph.azure.git_repository;fontSize=11;" parent="1" vertex="1">
                    <mxGeometry x="53.5" y="385" width="50" height="50" as="geometry"/>
                </mxCell>
                <mxCell id="7" value="State Machine" style="aspect=fixed;html=1;points=[];align=center;image;fontSize=12;image=img/lib/azure2/integration/Event_Grid_Domains.svg;" parent="1" vertex="1">
                    <mxGeometry x="410" y="462" width="67" height="60" as="geometry"/>
                </mxCell>
                <mxCell id="82" value="" style="outlineConnect=0;fontColor=#232F3E;gradientColor=none;fillColor=#BC1356;strokeColor=none;dashed=0;verticalLabelPosition=bottom;verticalAlign=top;align=center;html=1;fontSize=12;fontStyle=0;aspect=fixed;pointerEvents=1;shape=mxgraph.aws4.parameter_store;" parent="1" vertex="1">
                    <mxGeometry x="680" y="538" width="75" height="78" as="geometry"/>
                </mxCell>
                <mxCell id="83" value="KV Store&lt;br&gt;used to map network identity&lt;br&gt;to app identity" style="text;html=1;align=left;verticalAlign=middle;resizable=0;points=[];autosize=1;strokeColor=none;fontSize=11;" parent="1" vertex="1">
                    <mxGeometry x="760" y="550" width="160" height="40" as="geometry"/>
                </mxCell>
                <mxCell id="90" style="edgeStyle=orthogonalEdgeStyle;rounded=1;orthogonalLoop=1;jettySize=auto;html=1;fontSize=11;" parent="1" source="89" target="40" edge="1">
                    <mxGeometry relative="1" as="geometry"/>
                </mxCell>
                <mxCell id="89" value="obj" style="pointerEvents=1;shadow=0;dashed=0;html=1;strokeColor=none;fillColor=#005F4B;labelPosition=center;verticalLabelPosition=bottom;verticalAlign=top;align=center;outlineConnect=0;shape=mxgraph.veeam2.s3_compatible;fontSize=11;" parent="1" vertex="1">
                    <mxGeometry x="52" y="527" width="59" height="68" as="geometry"/>
                </mxCell>
                <mxCell id="93" style="edgeStyle=orthogonalEdgeStyle;rounded=1;orthogonalLoop=1;jettySize=auto;html=1;fontSize=11;" parent="1" source="91" edge="1">
                    <mxGeometry relative="1" as="geometry">
                        <mxPoint x="370" y="490" as="targetPoint"/>
                    </mxGeometry>
                </mxCell>
                <mxCell id="91" value="" style="ellipse;html=1;shape=startState;fillColor=#000000;strokeColor=#ff0000;" parent="1" vertex="1">
                    <mxGeometry x="10" y="475" width="30" height="30" as="geometry"/>
                </mxCell>
            </root>
        </mxGraphModel>
    </diagram>
</mxfile>